# xmcd
#
# Track frame offsets:
#	150
#	17122
#	32557
#	47246
#	61858
#	76064
#	89563
#	102887
#	116373
#	134745
#	150946
#	167667
#	180720
#	194042
#	212922
#	226123
#	241034
#	254910
#	268569
#	284271
#	295959
#
# Disc length: 4185 seconds
#
# Revision: 0
# Processed by: cddbd v1.5.2PL0 Copyright (c) Steve Scherf et al.
# Submitted via: EZCDAudioConverter 3.1.7.1
#
DISCID=29105715
DTITLE=Nu Country Traxx Volume 205 US
DYEAR=2016
DGENRE=country
TTITLE0=Keith Urban - Wasted Time
TTITLE1=Kenny Chesney - Noise
TTITLE2=Jason Aldean - Lights Come On
TTITLE3=Carrie Underwood - Church Bells
TTITLE4=Zac Brown Band - Castaway
TTITLE5=Charles Kelley - Lonely Girl
TTITLE6=Michael Ray - Think A Little Less
TTITLE7=Lavendine - Boomerang
TTITLE8=Craig Campbell - Outskirts Of Heaven
TTITLE9=Chris Janson - When I'm Holding Her
TTITLE10=Charlie Farley ft. Colt Ford and Daniel Lee - Southern Summertime
TTITLE11=Blackjack Billy - The Booze Cruise
TTITLE12=Jessie G - Drop A Line
TTITLE13=Margo Price - Hurtin' (On The Bottle)
TTITLE14=Olivia Lane - Make My Own Sunshine
TTITLE15=Casey Donahew - Feels This Right
TTITLE16=Hillbilly Vegas - Shake It Like A Hillbilly
TTITLE17=George Canyon - Daughter Of The Sun
TTITLE18=Bobby Bones and The Raging Idiots - Every Day Is A Good Day
TTITLE19=Chris Buck Band - Giddy Up
TTITLE20=Kayla Calabrese - Happily Never After
EXTD=
EXTT0=
EXTT1=
EXTT2=
EXTT3=
EXTT4=
EXTT5=
EXTT6=
EXTT7=
EXTT8=
EXTT9=
EXTT10=
EXTT11=
EXTT12=
EXTT13=
EXTT14=
EXTT15=
EXTT16=
EXTT17=
EXTT18=
EXTT19=
EXTT20=
PLAYORDER=
